<svg xmlns="http://www.w3.org/2000/svg">  
  <symbol id="reactionEmoji" fill="none" >
    <path d="M10.6594 4.22533e-08C12.1272 -0.000130527 13.5793 0.302351 14.9248 0.888537C16.2704 1.47472 17.4805 2.33201 18.4795 3.40681C19.4785 4.48161 20.2449 5.75082 20.7309 7.1351C21.2169 8.51938 21.4119 9.98897 21.3039 11.452C20.8847 11.24 20.4459 11.069 19.9938 10.9413C20.0491 9.07268 19.5417 7.2305 18.5372 5.65344C17.5328 4.07639 16.0776 2.83715 14.3603 2.09628C12.643 1.35541 10.7426 1.14706 8.90539 1.49821C7.0682 1.84936 5.37885 2.74384 4.05622 4.06575C2.73358 5.38766 1.83862 7.07609 1.48727 8.91228C1.13593 10.7485 1.3444 12.6478 2.08567 14.3642C2.82695 16.0806 4.06686 17.535 5.64477 18.5389C7.22269 19.5428 9.06588 20.0499 10.9355 19.9947C11.0636 20.452 11.2344 20.8893 11.4452 21.3053C10.0154 21.4091 8.57938 21.2238 7.22281 20.7607C5.86624 20.2976 4.61692 19.5661 3.54941 18.6099C2.48189 17.6536 1.61807 16.4922 1.00949 15.195C0.400912 13.8978 0.0600485 12.4913 0.00724351 11.0596C-0.0455615 9.62781 0.190774 8.20008 0.702147 6.8616C1.21352 5.52312 1.98945 4.30132 2.98362 3.26912C3.9778 2.23691 5.16985 1.41547 6.48862 0.853801C7.8074 0.292134 9.22588 0.00175663 10.6594 4.22533e-08ZM6.864 13.9027C7.41441 14.4575 8.07997 14.8847 8.8137 15.1543C9.54743 15.4238 10.3314 15.5291 11.1103 15.4627C10.9485 15.9009 10.8292 16.3536 10.7541 16.8147C9.85651 16.8284 8.96536 16.6609 8.13413 16.322C7.3029 15.9831 6.54872 15.48 5.91681 14.8427C5.79209 14.7171 5.72238 14.5472 5.723 14.3703C5.72363 14.1934 5.79454 14.024 5.92015 13.8993C6.04575 13.7747 6.21576 13.705 6.39276 13.7056C6.56977 13.7063 6.73928 13.7771 6.864 13.9027ZM13.9945 7.33333C14.3484 7.33333 14.6877 7.47381 14.9379 7.72386C15.1881 7.97391 15.3286 8.31304 15.3286 8.66667C15.3286 9.02029 15.1881 9.35943 14.9379 9.60948C14.6877 9.85952 14.3484 10 13.9945 10C13.6407 10 13.3014 9.85952 13.0512 9.60948C12.801 9.35943 12.6605 9.02029 12.6605 8.66667C12.6605 8.31304 12.801 7.97391 13.0512 7.72386C13.3014 7.47381 13.6407 7.33333 13.9945 7.33333ZM7.32425 7.33333C7.67806 7.33333 8.01738 7.47381 8.26757 7.72386C8.51775 7.97391 8.65831 8.31304 8.65831 8.66667C8.65831 9.02029 8.51775 9.35943 8.26757 9.60948C8.01738 9.85952 7.67806 10 7.32425 10C6.97043 10 6.63111 9.85952 6.38092 9.60948C6.13074 9.35943 5.99019 9.02029 5.99019 8.66667C5.99019 8.31304 6.13074 7.97391 6.38092 7.72386C6.63111 7.47381 6.97043 7.33333 7.32425 7.33333ZM24 18C24 19.5913 23.3675 21.1174 22.2417 22.2426C21.1159 23.3679 19.5889 24 17.9967 24C16.4046 24 14.8776 23.3679 13.7518 22.2426C12.6259 21.1174 11.9935 19.5913 11.9935 18C11.9935 16.4087 12.6259 14.8826 13.7518 13.7574C14.8776 12.6321 16.4046 12 17.9967 12C19.5889 12 21.1159 12.6321 22.2417 13.7574C23.3675 14.8826 24 16.4087 24 18ZM18.6638 15.3333C18.6638 15.1565 18.5935 14.987 18.4684 14.8619C18.3433 14.7369 18.1736 14.6667 17.9967 14.6667C17.8198 14.6667 17.6502 14.7369 17.5251 14.8619C17.4 14.987 17.3297 15.1565 17.3297 15.3333V17.3333H15.3286C15.1517 17.3333 14.982 17.4036 14.8569 17.5286C14.7319 17.6536 14.6616 17.8232 14.6616 18C14.6616 18.1768 14.7319 18.3464 14.8569 18.4714C14.982 18.5964 15.1517 18.6667 15.3286 18.6667H17.3297V20.6667C17.3297 20.8435 17.4 21.013 17.5251 21.1381C17.6502 21.2631 17.8198 21.3333 17.9967 21.3333C18.1736 21.3333 18.3433 21.2631 18.4684 21.1381C18.5935 21.013 18.6638 20.8435 18.6638 20.6667V18.6667H20.6648C20.8418 18.6667 21.0114 18.5964 21.1365 18.4714C21.2616 18.3464 21.3319 18.1768 21.3319 18C21.3319 17.8232 21.2616 17.6536 21.1365 17.5286C21.0114 17.4036 20.8418 17.3333 20.6648 17.3333H18.6638V15.3333Z" fill="#C7C1BB"/>
  </symbol>

  <symbol id="search" fill="none">
    <path d="M19.6 21L13.3 14.7C12.8 15.1 12.225 15.4167 11.575 15.65C10.925 15.8833 10.2333 16 9.5 16C7.68333 16 6.146 15.3707 4.888 14.112C3.63 12.8533 3.00067 11.316 3 9.5C3 7.68333 3.62933 6.146 4.888 4.888C6.14667 3.63 7.684 3.00067 9.5 3C11.3167 3 12.854 3.62933 14.112 4.888C15.37 6.14667 15.9993 7.684 16 9.5C16 10.2333 15.8833 10.925 15.65 11.575C15.4167 12.225 15.1 12.8 14.7 13.3L21 19.6L19.6 21ZM9.5 14C10.75 14 11.8127 13.5623 12.688 12.687C13.5633 11.8117 14.0007 10.7493 14 9.5C14 8.25 13.5623 7.18733 12.687 6.312C11.8117 5.43667 10.7493 4.99933 9.5 5C8.25 5 7.18733 5.43767 6.312 6.313C5.43667 7.18833 4.99933 8.25067 5 9.5C5 10.75 5.43767 11.8127 6.313 12.688C7.18833 13.5633 8.25067 14.0007 9.5 14Z" fill="#C7C1BB"/>
  </symbol>

  <symbol id="closed" fill="none">
    <path
      d="M20.3604 18.7022C20.5805 18.9224 20.7042 19.221 20.7042 19.5323C20.7042 19.8436 20.5805 20.1422 20.3604 20.3624C20.1402 20.5825 19.8416 20.7062 19.5303 20.7062C19.219 20.7062 18.9204 20.5825 18.7002 20.3624L12.5 14.1602L6.29787 20.3604C6.07772 20.5806 5.77913 20.7043 5.46779 20.7043C5.15645 20.7043 4.85786 20.5806 4.63771 20.3604C4.41756 20.1403 4.29388 19.8417 4.29388 19.5304C4.29388 19.219 4.41756 18.9204 4.63771 18.7003L10.8399 12.5001L4.63967 6.29793C4.41952 6.07778 4.29584 5.77919 4.29584 5.46785C4.29584 5.15651 4.41952 4.85793 4.63967 4.63777C4.85982 4.41762 5.15841 4.29395 5.46974 4.29395C5.78108 4.29395 6.07967 4.41762 6.29982 4.63777L12.5 10.8399L18.7022 4.6368C18.9223 4.41665 19.2209 4.29297 19.5322 4.29297C19.8436 4.29297 20.1422 4.41665 20.3623 4.6368C20.5825 4.85695 20.7062 5.15554 20.7062 5.46688C20.7062 5.77822 20.5825 6.0768 20.3623 6.29695L14.1602 12.5001L20.3604 18.7022Z" fill="#000"/>
  </symbol>

  <symbol id="leftArrow" fill="none">
    <g clip-path="url(#clip0_88_511)">
      <path fill-rule="evenodd" clip-rule="evenodd" d="M8.29279 12.7073C8.10532 12.5198 8 12.2655 8 12.0003C8 11.7352 8.10532 11.4809 8.29279 11.2933L13.9498 5.63634C14.042 5.54083 14.1524 5.46465 14.2744 5.41224C14.3964 5.35983 14.5276 5.33225 14.6604 5.33109C14.7932 5.32994 14.9248 5.35524 15.0477 5.40552C15.1706 5.4558 15.2823 5.53006 15.3762 5.62395C15.4701 5.71784 15.5443 5.82949 15.5946 5.95239C15.6449 6.07529 15.6702 6.20696 15.669 6.33974C15.6679 6.47252 15.6403 6.60374 15.5879 6.72575C15.5355 6.84775 15.4593 6.9581 15.3638 7.05034L10.4138 12.0003L15.3638 16.9503C15.5459 17.1389 15.6467 17.3915 15.6445 17.6537C15.6422 17.9159 15.537 18.1668 15.3516 18.3522C15.1662 18.5376 14.9154 18.6427 14.6532 18.645C14.391 18.6473 14.1384 18.5465 13.9498 18.3643L8.29279 12.7073Z" fill="#D5E0D8"/>
    </g>
    <defs>
      <clipPath id="clip0_88_511">
        <rect width="24" height="24" fill="white"/>
      </clipPath>
    </defs>
  </symbol>
  
  <symbol id="rightArrow" fill="none">
    <g clip-path="url(#clip0_88_507)">
      <path fill-rule="evenodd" clip-rule="evenodd" d="M15.7073 11.2932C15.8948 11.4807 16.0001 11.735 16.0001 12.0002C16.0001 12.2653 15.8948 12.5197 15.7073 12.7072L10.0503 18.3642C9.9581 18.4597 9.84775 18.5359 9.72575 18.5883C9.60374 18.6407 9.47252 18.6683 9.33974 18.6694C9.20696 18.6706 9.07529 18.6453 8.95239 18.595C8.82949 18.5447 8.71784 18.4705 8.62395 18.3766C8.53006 18.2827 8.4558 18.171 8.40552 18.0481C8.35524 17.9252 8.32994 17.7936 8.33109 17.6608C8.33225 17.528 8.35983 17.3968 8.41224 17.2748C8.46465 17.1528 8.54083 17.0424 8.63634 16.9502L13.5863 12.0002L8.63634 7.05018C8.45418 6.86158 8.35339 6.60898 8.35567 6.34678C8.35795 6.08458 8.46312 5.83377 8.64852 5.64836C8.83393 5.46295 9.08474 5.35778 9.34694 5.35551C9.60914 5.35323 9.86174 5.45402 10.0503 5.63618L15.7073 11.2932Z" fill="#D5E0D8"/>
    </g>
    <defs>
      <clipPath id="clip0_88_507">
        <rect width="24" height="24" fill="white"/>
      </clipPath>
    </defs>
  </symbol>

  <symbol id="largeLeftArrow" fill="none">
    <path fill-rule="evenodd" clip-rule="evenodd" d="M32.8247 43.01C32.0826 42.3753 31.6657 41.5145 31.6657 40.617C31.6657 39.7195 32.0826 38.8587 32.8247 38.224L55.2169 19.0767C55.5821 18.7534 56.0189 18.4956 56.5018 18.3182C56.9847 18.1408 57.5041 18.0474 58.0297 18.0435C58.5553 18.0396 59.0765 18.1253 59.563 18.2954C60.0495 18.4656 60.4914 18.7169 60.8631 19.0348C61.2347 19.3526 61.5287 19.7305 61.7277 20.1464C61.9267 20.5624 62.0269 21.0081 62.0223 21.4575C62.0177 21.9069 61.9085 22.3511 61.7011 22.764C61.4936 23.177 61.1921 23.5504 60.814 23.8627L41.2203 40.617L60.814 57.3713C61.5351 58.0097 61.934 58.8647 61.925 59.7521C61.916 60.6396 61.4997 61.4885 60.7658 62.1161C60.0319 62.7436 59.0391 63.0996 58.0012 63.1073C56.9634 63.115 55.9635 62.7738 55.2169 62.1573L32.8247 43.01Z" fill="#D5E0D8"/>
  </symbol>

  <symbol id="largeRightArrow" fill="none">
    <path fill-rule="evenodd" clip-rule="evenodd" d="M62.1753 38.2232C62.9174 38.8579 63.3343 39.7187 63.3343 40.6162C63.3343 41.5137 62.9174 42.3744 62.1753 43.0092L39.783 62.1565C39.4179 62.4797 38.9811 62.7376 38.4982 62.915C38.0153 63.0924 37.4958 63.1857 36.9703 63.1896C36.4447 63.1935 35.9234 63.1079 35.437 62.9377C34.9505 62.7675 34.5086 62.5162 34.1369 62.1984C33.7652 61.8806 33.4713 61.5027 33.2723 61.0867C33.0733 60.6708 32.9731 60.2251 32.9777 59.7756C32.9823 59.3262 33.0914 58.8821 33.2989 58.4691C33.5064 58.0562 33.8079 57.6827 34.186 57.3705L53.7797 40.6162L34.186 23.8618C33.4649 23.2235 33.0659 22.3685 33.075 21.481C33.084 20.5936 33.5003 19.7446 34.2342 19.1171C34.9681 18.4895 35.9609 18.1336 36.9988 18.1259C38.0366 18.1181 39.0365 18.4593 39.7831 19.0759L62.1753 38.2232Z" fill="#D5E0D8"/>
  </symbol>
</svg>