<svg xmlns="http://www.w3.org/2000/svg">  
  <symbol id="reactionEmoji" fill="none" >
    <path d="M12 24C10.4241 24 8.86371 23.6896 7.4078 23.0866C5.95189 22.4835 4.62902 21.5996 3.51472 20.4853C2.40042 19.371 1.5165 18.0481 0.913446 16.5922C0.310389 15.1363 0 13.5759 0 12C0 10.4241 0.310389 8.86371 0.913446 7.4078C1.5165 5.95189 2.40042 4.62902 3.51472 3.51472C4.62902 2.40042 5.95189 1.5165 7.4078 0.913445C8.86371 0.310389 10.4241 -2.34822e-08 12 0C15.1826 4.74244e-08 18.2348 1.26428 20.4853 3.51472C22.7357 5.76516 24 8.8174 24 12C24 15.1826 22.7357 18.2348 20.4853 20.4853C18.2348 22.7357 15.1826 24 12 24ZM8.5 11.5C8.89782 11.5 9.27936 11.342 9.56066 11.0607C9.84196 10.7794 10 10.3978 10 10C10 9.60218 9.84196 9.22064 9.56066 8.93934C9.27936 8.65804 8.89782 8.5 8.5 8.5C8.10218 8.5 7.72064 8.65804 7.43934 8.93934C7.15804 9.22064 7 9.60218 7 10C7 10.3978 7.15804 10.7794 7.43934 11.0607C7.72064 11.342 8.10218 11.5 8.5 11.5ZM8.272 15.334C8.1848 15.2348 8.0788 15.1538 7.96013 15.0958C7.84146 15.0377 7.71247 15.0038 7.5806 14.9959C7.44873 14.988 7.31661 15.0063 7.19186 15.0497C7.06711 15.0932 6.95221 15.1609 6.85379 15.2491C6.75537 15.3372 6.67538 15.4439 6.61845 15.5631C6.56152 15.6823 6.52877 15.8116 6.52209 15.9436C6.51542 16.0755 6.53495 16.2074 6.57956 16.3318C6.62417 16.4561 6.69297 16.5704 6.782 16.668C7.4382 17.4026 8.24233 17.9901 9.14161 18.392C10.0409 18.7939 11.015 19.0011 12 19C12.985 19.0011 13.9591 18.7939 14.8584 18.392C15.7577 17.9901 16.5618 17.4026 17.218 16.668C17.307 16.5704 17.3758 16.4561 17.4204 16.3318C17.4651 16.2074 17.4846 16.0755 17.4779 15.9436C17.4712 15.8116 17.4385 15.6823 17.3816 15.5631C17.3246 15.4439 17.2446 15.3372 17.1462 15.2491C17.0478 15.1609 16.9329 15.0932 16.8081 15.0497C16.6834 15.0063 16.5513 14.988 16.4194 14.9959C16.2875 15.0038 16.1585 15.0377 16.0399 15.0958C15.9212 15.1538 15.8152 15.2348 15.728 15.334C15.2594 15.8591 14.6849 16.279 14.0424 16.5661C13.3998 16.8533 12.7038 17.0011 12 17C10.52 17 9.19 16.358 8.272 15.334ZM15.5 11.5C15.8978 11.5 16.2794 11.342 16.5607 11.0607C16.842 10.7794 17 10.3978 17 10C17 9.60218 16.842 9.22064 16.5607 8.93934C16.2794 8.65804 15.8978 8.5 15.5 8.5C15.1022 8.5 14.7206 8.65804 14.4393 8.93934C14.158 9.22064 14 9.60218 14 10C14 10.3978 14.158 10.7794 14.4393 11.0607C14.7206 11.342 15.1022 11.5 15.5 11.5Z" fill="#C7C1BB"/>
  </symbol>

  <symbol id="search" fill="none">
    <path d="M19.6 21L13.3 14.7C12.8 15.1 12.225 15.4167 11.575 15.65C10.925 15.8833 10.2333 16 9.5 16C7.68333 16 6.146 15.3707 4.888 14.112C3.63 12.8533 3.00067 11.316 3 9.5C3 7.68333 3.62933 6.146 4.888 4.888C6.14667 3.63 7.684 3.00067 9.5 3C11.3167 3 12.854 3.62933 14.112 4.888C15.37 6.14667 15.9993 7.684 16 9.5C16 10.2333 15.8833 10.925 15.65 11.575C15.4167 12.225 15.1 12.8 14.7 13.3L21 19.6L19.6 21ZM9.5 14C10.75 14 11.8127 13.5623 12.688 12.687C13.5633 11.8117 14.0007 10.7493 14 9.5C14 8.25 13.5623 7.18733 12.687 6.312C11.8117 5.43667 10.7493 4.99933 9.5 5C8.25 5 7.18733 5.43767 6.312 6.313C5.43667 7.18833 4.99933 8.25067 5 9.5C5 10.75 5.43767 11.8127 6.313 12.688C7.18833 13.5633 8.25067 14.0007 9.5 14Z" fill="#C7C1BB"/>
  </symbol>

  <symbol id="closed" fill="none">
    <path
      d="M20.3604 18.7022C20.5805 18.9224 20.7042 19.221 20.7042 19.5323C20.7042 19.8436 20.5805 20.1422 20.3604 20.3624C20.1402 20.5825 19.8416 20.7062 19.5303 20.7062C19.219 20.7062 18.9204 20.5825 18.7002 20.3624L12.5 14.1602L6.29787 20.3604C6.07772 20.5806 5.77913 20.7043 5.46779 20.7043C5.15645 20.7043 4.85786 20.5806 4.63771 20.3604C4.41756 20.1403 4.29388 19.8417 4.29388 19.5304C4.29388 19.219 4.41756 18.9204 4.63771 18.7003L10.8399 12.5001L4.63967 6.29793C4.41952 6.07778 4.29584 5.77919 4.29584 5.46785C4.29584 5.15651 4.41952 4.85793 4.63967 4.63777C4.85982 4.41762 5.15841 4.29395 5.46974 4.29395C5.78108 4.29395 6.07967 4.41762 6.29982 4.63777L12.5 10.8399L18.7022 4.6368C18.9223 4.41665 19.2209 4.29297 19.5322 4.29297C19.8436 4.29297 20.1422 4.41665 20.3623 4.6368C20.5825 4.85695 20.7062 5.15554 20.7062 5.46688C20.7062 5.77822 20.5825 6.0768 20.3623 6.29695L14.1602 12.5001L20.3604 18.7022Z" fill="#000"/>
  </symbol>
</svg>