<svg width="24" height="24" viewBox="0 0 24 24" fill="none" xmlns="http://www.w3.org/2000/svg">
<g clip-path="url(#clip0_88_511)">
<path fill-rule="evenodd" clip-rule="evenodd" d="M8.29279 12.7073C8.10532 12.5198 8 12.2655 8 12.0003C8 11.7352 8.10532 11.4809 8.29279 11.2933L13.9498 5.63634C14.042 5.54083 14.1524 5.46465 14.2744 5.41224C14.3964 5.35983 14.5276 5.33225 14.6604 5.33109C14.7932 5.32994 14.9248 5.35524 15.0477 5.40552C15.1706 5.4558 15.2823 5.53006 15.3762 5.62395C15.4701 5.71784 15.5443 5.82949 15.5946 5.95239C15.6449 6.07529 15.6702 6.20696 15.669 6.33974C15.6679 6.47252 15.6403 6.60374 15.5879 6.72575C15.5355 6.84775 15.4593 6.9581 15.3638 7.05034L10.4138 12.0003L15.3638 16.9503C15.5459 17.1389 15.6467 17.3915 15.6445 17.6537C15.6422 17.9159 15.537 18.1668 15.3516 18.3522C15.1662 18.5376 14.9154 18.6427 14.6532 18.645C14.391 18.6473 14.1384 18.5465 13.9498 18.3643L8.29279 12.7073Z" fill="#D5E0D8"/>
</g>
<defs>
<clipPath id="clip0_88_511">
<rect width="24" height="24" fill="white"/>
</clipPath>
</defs>
</svg>
