<svg width="95" height="82" viewBox="0 0 95 82" fill="none" xmlns="http://www.w3.org/2000/svg">
<path fill-rule="evenodd" clip-rule="evenodd" d="M32.8247 43.01C32.0826 42.3753 31.6657 41.5145 31.6657 40.617C31.6657 39.7195 32.0826 38.8587 32.8247 38.224L55.2169 19.0767C55.5821 18.7534 56.0189 18.4956 56.5018 18.3182C56.9847 18.1408 57.5041 18.0474 58.0297 18.0435C58.5553 18.0396 59.0765 18.1253 59.563 18.2954C60.0495 18.4656 60.4914 18.7169 60.8631 19.0348C61.2347 19.3526 61.5287 19.7305 61.7277 20.1464C61.9267 20.5624 62.0269 21.0081 62.0223 21.4575C62.0177 21.9069 61.9085 22.3511 61.7011 22.764C61.4936 23.177 61.1921 23.5504 60.814 23.8627L41.2203 40.617L60.814 57.3713C61.5351 58.0097 61.934 58.8647 61.925 59.7521C61.916 60.6396 61.4997 61.4885 60.7658 62.1161C60.0319 62.7436 59.0391 63.0996 58.0012 63.1073C56.9634 63.115 55.9635 62.7738 55.2169 62.1573L32.8247 43.01Z" fill="#D5E0D8"/>
</svg>
