<svg width="30" height="30" viewBox="0 0 30 30" fill="none" xmlns="http://www.w3.org/2000/svg">
<g id="material-symbols:lock">
<path id="Vector" d="M7.5 27.5C6.8125 27.5 6.22375 27.255 5.73375 26.765C5.24375 26.275 4.99917 25.6867 5 25V12.5C5 11.8125 5.245 11.2238 5.735 10.7338C6.225 10.2438 6.81334 9.99917 7.5 10H8.75V7.5C8.75 5.77083 9.35959 4.29667 10.5788 3.0775C11.7979 1.85833 13.2717 1.24917 15 1.25C16.7292 1.25 18.2033 1.85958 19.4225 3.07875C20.6417 4.29792 21.2508 5.77167 21.25 7.5V10H22.5C23.1875 10 23.7763 10.245 24.2663 10.735C24.7563 11.225 25.0008 11.8133 25 12.5V25C25 25.6875 24.755 26.2763 24.265 26.7663C23.775 27.2563 23.1867 27.5008 22.5 27.5H7.5ZM15 21.25C15.6875 21.25 16.2763 21.005 16.7663 20.515C17.2563 20.025 17.5008 19.4367 17.5 18.75C17.5 18.0625 17.255 17.4738 16.765 16.9838C16.275 16.4938 15.6867 16.2492 15 16.25C14.3125 16.25 13.7238 16.495 13.2338 16.985C12.7438 17.475 12.4992 18.0633 12.5 18.75C12.5 19.4375 12.745 20.0263 13.235 20.5163C13.725 21.0063 14.3133 21.2508 15 21.25ZM11.25 10H18.75V7.5C18.75 6.45833 18.3854 5.57292 17.6563 4.84375C16.9271 4.11458 16.0417 3.75 15 3.75C13.9583 3.75 13.0729 4.11458 12.3438 4.84375C11.6146 5.57292 11.25 6.45833 11.25 7.5V10Z" fill="#F96A6A"/>
</g>
</svg>
