<svg version="1.1" id="Layer_1" xmlns="http://www.w3.org/2000/svg" xmlns:xlink="http://www.w3.org/1999/xlink" x="0px" y="0px"
	 width="100%" viewBox="0 0 750 200" enable-background="new 0 0 750 200" xml:space="preserve">
<path fill="#04C75A" opacity="1.000000" stroke="none" 
	d="
M1.241583,194.248718 
	C1.000000,132.312439 1.000000,70.624878 1.000000,8.468657 
	C2.686428,5.340507 4.305169,2.613421 7.757667,1.237766 
	C253.020889,1.000000 498.041779,1.000000 743.531372,1.000000 
	C746.659546,2.686400 749.386536,4.305223 750.762207,7.757661 
	C751.000000,69.687561 751.000000,131.375122 751.000000,193.531342 
	C749.466614,196.805023 748.060181,199.736710 744.248718,200.758423 
	C498.979095,201.000000 253.958206,201.000000 8.468657,201.000000 
	C5.195013,199.466568 2.263231,198.060211 1.241583,194.248718 
z"/>

<path fill="#FCFEFD" opacity="1.000000" stroke="none" 
	d="
M169.107239,98.918777 
	C169.907196,100.018364 170.509857,100.808319 172.005081,102.768188 
	C172.005081,95.073944 172.005081,88.558846 172.005081,82.043739 
	C172.005096,70.994110 172.005096,70.994102 183.060501,70.994125 
	C191.529099,70.994141 191.529266,70.994148 191.529236,79.227821 
	C191.529144,95.048523 191.424500,110.870438 191.609024,126.688980 
	C191.650238,130.223022 190.458008,130.697327 187.160065,131.170563 
	C176.733170,132.666809 169.630219,129.340622 164.760788,119.661690 
	C161.579178,113.337593 156.732452,107.850677 152.621429,101.995880 
	C152.343292,101.599762 151.979752,101.263611 151.656082,100.899719 
	C149.835617,101.646645 150.513229,103.194328 150.502563,104.363853 
	C150.432678,112.023773 150.369629,119.686432 150.514816,127.344200 
	C150.566345,130.061203 149.903320,131.245361 146.932556,131.061325 
	C141.815903,130.744354 135.252411,132.640579 131.958588,130.123657 
	C128.809082,127.717049 131.090561,120.789162 131.041367,115.858322 
	C130.905121,102.203918 131.073059,88.546463 130.931473,74.892166 
	C130.901184,71.972015 131.468414,70.932381 134.703415,70.900444 
	C149.393631,70.755424 149.392410,70.634911 157.769867,82.642502 
	C161.483139,87.964775 165.196579,93.286926 169.107239,98.918777 
z"/>
<path fill="#EEFBF4" opacity="1.000000" stroke="none" 
	d="
M462.000732,112.969543 
	C462.803467,108.000656 461.079651,106.622864 456.449554,106.765007 
	C445.150482,107.111885 445.142975,106.866875 445.143158,95.383324 
	C445.143280,87.334961 445.143280,87.335182 453.442871,87.334717 
	C460.775909,87.334305 468.118927,87.104286 475.437988,87.423721 
	C479.442047,87.598465 479.167328,85.375954 479.123077,82.757935 
	C479.080719,80.251358 479.633759,77.917130 475.518890,78.067627 
	C466.697784,78.390259 457.856537,78.184250 449.023712,78.149818 
	C447.165863,78.142570 444.962860,78.853691 445.010040,75.451050 
	C445.052643,72.377655 446.992279,72.961967 448.708130,72.957863 
	C459.707581,72.931564 470.708801,73.048798 481.705566,72.875038 
	C484.668427,72.828232 485.366608,73.884415 485.246185,76.588295 
	C485.061005,80.746544 485.056885,84.925537 485.247742,89.083260 
	C485.369263,91.730362 484.439423,92.492157 481.841309,92.449844 
	C473.177338,92.308739 464.504120,92.578987 455.845825,92.316429 
	C451.979065,92.199188 451.106049,93.610405 451.130524,97.219406 
	C451.154175,100.709717 452.196381,101.831512 455.697479,101.753998 
	C465.025848,101.547455 474.361786,101.683083 483.694733,101.687485 
	C485.496826,101.688332 487.391815,101.256836 487.357666,104.256714 
	C487.325043,107.120758 485.618591,106.912872 483.719330,106.894913 
	C479.719879,106.857094 475.714417,107.011505 471.721893,106.841293 
	C469.125061,106.730591 467.679352,107.727806 468.429077,110.218727 
	C469.212982,112.823166 465.700195,117.587967 470.750763,117.856339 
	C478.852234,118.286812 487.013702,118.137825 495.176483,117.659103 
	C506.301086,117.006676 517.490906,117.111511 528.639648,117.399399 
	C533.142761,117.515678 534.585266,116.084618 535.160034,111.727730 
	C536.379639,102.482498 537.699646,93.273308 538.196167,83.940987 
	C538.391418,80.271240 537.186584,79.464561 533.780212,79.545975 
	C524.952332,79.756973 516.116028,79.609924 507.283051,79.619614 
	C505.414490,79.621658 503.631500,79.859871 503.522614,77.012947 
	C503.402649,73.875473 505.292847,74.069969 507.399414,74.076385 
	C518.565491,74.110367 529.733337,74.199432 540.896851,74.025383 
	C544.114136,73.975220 544.759277,75.032784 544.580688,78.083565 
	C543.898987,89.733704 542.895386,101.345924 540.945679,112.849884 
	C540.351318,116.356743 541.188049,117.766136 544.861145,117.320969 
	C546.831909,117.082123 548.856506,117.316406 550.855469,117.273628 
	C552.663208,117.234947 554.072021,117.318382 554.081055,119.829063 
	C554.089417,122.149826 553.057190,122.735336 551.063660,122.581337 
	C550.566833,122.542946 550.064209,122.579033 549.564209,122.582024 
	C513.090393,122.800163 476.616638,123.038704 440.142517,123.170189 
	C438.504852,123.176094 435.857635,124.585579 435.414673,121.252510 
	C435.106750,118.935585 436.008148,117.970306 438.473907,118.021309 
	C444.804260,118.152260 451.153046,117.810371 457.467010,118.157188 
	C461.309448,118.368263 462.657654,117.109901 462.000732,112.969543 
z"/>
<path fill="#F4FCF8" opacity="1.000000" stroke="none" 
	d="
M414.781433,89.000366 
	C414.781342,102.318832 414.792725,115.137375 414.769501,127.955856 
	C414.765839,129.978851 415.539215,132.252304 411.888123,132.352402 
	C407.922546,132.461151 408.715332,129.984467 408.711029,127.778046 
	C408.692902,118.455521 408.626831,109.131950 408.748718,99.810989 
	C408.784027,97.111259 408.089447,96.092346 405.154633,96.010941 
	C393.778503,95.695343 393.781708,95.579948 393.781433,106.919647 
	C393.781250,114.955673 393.781250,114.955750 385.558502,114.955734 
	C380.064850,114.955719 374.566589,114.821350 369.079437,115.010010 
	C366.189880,115.109352 364.954224,114.486107 365.010284,111.217728 
	C365.207245,99.734383 365.118225,88.245422 365.060150,76.758995 
	C365.048737,74.501762 365.211151,73.043221 368.178253,73.025711 
	C371.145782,73.008194 371.462311,74.467804 371.287689,76.714340 
	C371.274811,76.879776 371.283875,77.047218 371.287689,77.213615 
	C371.588226,90.330811 371.581696,90.255920 385.141785,89.068199 
	C387.452637,88.865799 387.859192,87.962326 387.800842,86.009308 
	C387.706482,82.849190 387.824341,79.683250 387.766022,76.521362 
	C387.729279,74.531357 387.761230,73.043449 390.556244,73.038261 
	C393.373627,73.033020 393.907349,74.263512 393.812622,76.668907 
	C393.681763,79.993217 394.025604,83.349442 393.716858,86.649979 
	C393.372955,90.326508 394.903748,91.017464 398.258209,90.982445 
	C408.702087,90.873436 408.703339,91.010643 408.703644,80.581535 
	C408.703735,77.584999 408.791138,74.585205 408.677673,71.593002 
	C408.594360,69.395653 409.089081,68.194221 411.669861,68.240227 
	C414.080566,68.283203 414.858215,69.192406 414.813782,71.520836 
	C414.705811,77.178848 414.780365,82.840340 414.781433,89.000366 
z"/>
<path fill="#F4FDF8" opacity="1.000000" stroke="none" 
	d="
M336.221069,90.662422 
	C336.744232,96.800880 336.450378,102.408058 334.151978,107.764877 
	C331.410156,114.155281 326.099884,118.062019 319.999969,117.821434 
	C313.306488,117.557457 308.694092,113.929550 306.215851,107.919373 
	C302.922150,99.931686 302.812683,91.676819 305.648560,83.521378 
	C308.198883,76.187202 313.830048,71.975304 320.375916,72.083351 
	C326.938873,72.191681 332.432312,76.590919 334.855469,83.894592 
	C335.530792,85.930176 335.756622,88.114883 336.221069,90.662422 
z"/>
<path fill="#F5FDF8" opacity="1.000000" stroke="none" 
	d="
M557.012451,90.478378 
	C555.180054,76.521759 566.929749,69.442123 576.617126,71.432961 
	C584.677063,73.089317 589.881897,79.181648 590.001221,87.120361 
	C590.117493,94.855309 584.957275,101.393295 577.488403,102.974045 
	C569.006226,104.769257 561.225952,101.090660 558.008240,93.732605 
	C557.611084,92.824356 557.371216,91.847305 557.012451,90.478378 
z"/>
<path fill="#EEFBF4" opacity="1.000000" stroke="none" 
	d="
M262.700989,90.469162 
	C265.704559,87.384537 269.281921,89.036758 272.537811,88.935753 
	C275.618591,88.840179 276.589783,87.867249 276.462158,84.893471 
	C276.277039,80.581818 276.522552,76.252838 276.387024,71.937447 
	C276.306793,69.382973 277.534637,68.991219 279.727600,68.959160 
	C282.068024,68.924957 282.466858,70.023102 282.463104,71.986458 
	C282.427490,90.594658 282.429718,109.202965 282.459015,127.811188 
	C282.462097,129.773865 282.007050,130.883560 279.692291,130.883209 
	C277.413483,130.882858 276.371490,130.247116 276.391266,127.795647 
	C276.470337,117.993744 276.274689,108.187531 276.494904,98.389977 
	C276.572815,94.923996 275.596252,93.579445 272.073914,93.985237 
	C269.778473,94.249687 267.419312,93.909607 265.103790,94.064941 
	C262.494324,94.239998 262.594421,92.603195 262.700989,90.469162 
z"/>
<path fill="#F0FCF5" opacity="1.000000" stroke="none" 
	d="
M348.691162,90.999458 
	C348.691406,84.350639 348.714569,78.201691 348.679413,72.053062 
	C348.667175,69.916901 348.646637,68.174484 351.714569,68.211617 
	C354.661163,68.247276 354.820770,69.795753 354.815979,72.032944 
	C354.775208,90.977875 354.745148,109.923203 354.847748,128.867661 
	C354.861969,131.491241 354.036530,132.291504 351.469269,132.335037 
	C348.717834,132.381683 348.660583,130.922592 348.668243,128.890839 
	C348.715393,116.427193 348.691437,103.963280 348.691162,90.999458 
z"/>
<path fill="#F2FCF7" opacity="1.000000" stroke="none" 
	d="
M296.839020,81.020508 
	C296.838989,96.980888 296.833099,112.444687 296.845123,127.908470 
	C296.846954,130.242233 297.324249,132.490005 293.507324,132.360138 
	C289.719360,132.231247 290.789886,129.761490 290.784515,127.873741 
	C290.732147,109.417107 290.751770,90.960251 290.755249,72.503464 
	C290.755646,70.388428 290.203827,68.170601 293.776672,68.211700 
	C297.260071,68.251770 296.850861,70.374573 296.841431,72.542648 
	C296.829865,75.203026 296.838898,77.863495 296.839020,81.020508 
z"/>
<path fill="#E8FAF0" opacity="1.000000" stroke="none" 
	d="
M251.721085,107.729477 
	C257.255432,110.066368 262.534943,107.948288 267.890350,107.548714 
	C269.378723,107.437660 271.454254,105.469673 272.169678,108.609406 
	C272.831177,111.512260 271.017975,112.302505 268.693390,112.764061 
	C261.978394,114.097359 255.190964,114.342415 248.371277,114.319893 
	C246.162064,114.312592 245.115479,113.744072 245.141876,111.216797 
	C245.263290,99.591660 245.257935,87.963966 245.148468,76.338593 
	C245.123291,73.664528 246.132965,72.983070 248.655334,72.967766 
	C251.303436,72.951698 251.606277,74.277557 251.600952,76.370880 
	C251.574783,86.668159 251.616989,96.965607 251.721085,107.729477 
z"/>
<path fill="#EBFAF2" opacity="1.000000" stroke="none" 
	d="
M607.618958,113.230087 
	C602.549133,115.644058 601.713379,115.270302 601.695068,110.694405 
	C601.643799,97.882462 601.670227,85.070175 601.684814,72.258041 
	C601.687012,70.310143 601.236328,68.250832 604.484436,68.198936 
	C607.811646,68.145775 607.756897,70.041740 607.748169,72.376122 
	C607.697876,85.853523 607.705872,99.331139 607.618958,113.230087 
z"/>
<path fill="#FCFEFD" opacity="1.000000" stroke="none" 
	d="
M573.928101,122.781845 
	C573.672546,126.637466 576.176208,125.840942 577.999329,125.849655 
	C587.138672,125.893333 596.278442,125.857452 605.417969,125.881790 
	C607.135681,125.886368 609.064758,125.306488 609.117126,128.355545 
	C609.167114,131.269547 607.521484,131.041443 605.622925,131.037674 
	C594.156921,131.014969 582.690186,130.959427 571.225403,131.077667 
	C568.686401,131.103851 567.668823,130.481949 567.794189,127.770500 
	C568.001160,123.293350 567.933350,118.797546 567.816956,114.313873 
	C567.757812,112.036514 568.406799,111.068993 570.888733,111.082802 
	C573.356262,111.096519 574.070129,112.045731 573.954224,114.334496 
	C573.819824,116.986420 573.924805,119.650467 573.928101,122.781845 
z"/>
<path fill="#10CA62" opacity="1.000000" stroke="none" 
	d="
M387.870483,106.679276 
	C387.762970,107.790817 387.883514,108.657539 387.509460,109.038155 
	C386.572235,109.991745 372.842316,110.299278 371.924957,109.481720 
	C370.756531,108.440361 371.227814,107.002136 371.195221,105.724869 
	C370.897827,94.066498 370.915955,94.305214 382.269318,93.970383 
	C386.895172,93.833954 388.556854,95.185768 387.925079,99.733749 
	C387.630402,101.855019 387.873810,104.051025 387.870483,106.679276 
z"/>
<path fill="#07C85C" opacity="1.000000" stroke="none" 
	d="
M329.928528,100.469208 
	C327.889130,109.216309 324.836029,112.609673 319.645569,112.306976 
	C314.661102,112.016296 311.288116,107.607140 310.322174,99.875374 
	C309.656128,94.544304 309.786560,89.241959 311.780396,84.147888 
	C313.287140,80.298203 315.800659,77.569855 320.238647,77.587868 
	C324.704163,77.605980 327.159424,80.503098 328.633240,84.275093 
	C330.621185,89.362816 330.373505,94.703430 329.928528,100.469208 
z"/>
<path fill="#09C85E" opacity="1.000000" stroke="none" 
	d="
M583.606262,88.637390 
	C581.748718,95.876343 576.862610,99.301636 570.907715,97.856865 
	C565.218201,96.476486 562.065063,90.321602 563.804565,83.991760 
	C565.360657,78.329330 570.496155,75.259720 576.077515,76.845642 
	C581.778076,78.465385 583.596680,82.823067 583.606262,88.637390 
z"/>
</svg>