<svg width="40" height="40" viewBox="0 0 40 40" fill="none" xmlns="http://www.w3.org/2000/svg">
<g id="fluent:emoji-16-filled">
<path id="Vector" d="M20 35C18.0302 35 16.0796 34.612 14.2597 33.8582C12.4399 33.1044 10.7863 31.9995 9.3934 30.6066C8.00052 29.2137 6.89563 27.5601 6.14181 25.7403C5.38799 23.9204 5 21.9698 5 20C5 18.0302 5.38799 16.0796 6.14181 14.2597C6.89563 12.4399 8.00052 10.7863 9.3934 9.3934C10.7863 8.00052 12.4399 6.89563 14.2597 6.14181C16.0796 5.38799 18.0302 5 20 5C23.9782 5 27.7936 6.58035 30.6066 9.3934C33.4196 12.2064 35 16.0218 35 20C35 23.9782 33.4196 27.7936 30.6066 30.6066C27.7936 33.4196 23.9782 35 20 35ZM15.625 19.375C16.1223 19.375 16.5992 19.1775 16.9508 18.8258C17.3025 18.4742 17.5 17.9973 17.5 17.5C17.5 17.0027 17.3025 16.5258 16.9508 16.1742C16.5992 15.8225 16.1223 15.625 15.625 15.625C15.1277 15.625 14.6508 15.8225 14.2992 16.1742C13.9475 16.5258 13.75 17.0027 13.75 17.5C13.75 17.9973 13.9475 18.4742 14.2992 18.8258C14.6508 19.1775 15.1277 19.375 15.625 19.375ZM15.34 24.1675C15.231 24.0435 15.0985 23.9422 14.9502 23.8697C14.8018 23.7972 14.6406 23.7547 14.4757 23.7449C14.3109 23.735 14.1458 23.7579 13.9898 23.8122C13.8339 23.8665 13.6903 23.9512 13.5672 24.0613C13.4442 24.1715 13.3442 24.3049 13.2731 24.4539C13.2019 24.6029 13.161 24.7645 13.1526 24.9295C13.1443 25.0944 13.1687 25.2593 13.2244 25.4147C13.2802 25.5702 13.3662 25.713 13.4775 25.835C14.2977 26.7532 15.3029 27.4877 16.427 27.99C17.5511 28.4924 18.7687 28.7514 20 28.75C21.2313 28.7514 22.4489 28.4924 23.573 27.99C24.6971 27.4877 25.7023 26.7532 26.5225 25.835C26.6338 25.713 26.7198 25.5702 26.7756 25.4147C26.8313 25.2593 26.8557 25.0944 26.8474 24.9295C26.839 24.7645 26.7981 24.6029 26.7269 24.4539C26.6558 24.3049 26.5558 24.1715 26.4328 24.0613C26.3097 23.9512 26.1661 23.8665 26.0102 23.8122C25.8542 23.7579 25.6891 23.735 25.5243 23.7449C25.3594 23.7547 25.1982 23.7972 25.0498 23.8697C24.9015 23.9422 24.769 24.0435 24.66 24.1675C24.0742 24.8238 23.3561 25.3487 22.553 25.7077C21.7498 26.0666 20.8797 26.2514 20 26.25C18.15 26.25 16.4875 25.4475 15.34 24.1675ZM24.375 19.375C24.8723 19.375 25.3492 19.1775 25.7008 18.8258C26.0525 18.4742 26.25 17.9973 26.25 17.5C26.25 17.0027 26.0525 16.5258 25.7008 16.1742C25.3492 15.8225 24.8723 15.625 24.375 15.625C23.8777 15.625 23.4008 15.8225 23.0492 16.1742C22.6975 16.5258 22.5 17.0027 22.5 17.5C22.5 17.9973 22.6975 18.4742 23.0492 18.8258C23.4008 19.1775 23.8777 19.375 24.375 19.375Z" fill="#C7C1BB"/>
</g>
</svg>
