<svg width="95" height="82" viewBox="0 0 95 82" fill="none" xmlns="http://www.w3.org/2000/svg">
<path fill-rule="evenodd" clip-rule="evenodd" d="M62.1753 38.2234C62.9174 38.8581 63.3343 39.7189 63.3343 40.6164C63.3343 41.5139 62.9174 42.3747 62.1753 43.0094L39.783 62.1567C39.4179 62.48 38.9811 62.7378 38.4982 62.9152C38.0153 63.0926 37.4958 63.186 36.9703 63.1899C36.4447 63.1938 35.9234 63.1081 35.437 62.938C34.9505 62.7678 34.5086 62.5164 34.1369 62.1986C33.7652 61.8808 33.4713 61.5029 33.2723 61.087C33.0733 60.671 32.9731 60.2253 32.9777 59.7759C32.9823 59.3265 33.0914 58.8823 33.2989 58.4694C33.5064 58.0564 33.8079 57.6829 34.186 57.3707L53.7797 40.6164L34.186 23.8621C33.4649 23.2237 33.0659 22.3687 33.075 21.4813C33.084 20.5938 33.5003 19.7449 34.2342 19.1173C34.9681 18.4898 35.9609 18.1338 36.9988 18.1261C38.0366 18.1184 39.0365 18.4596 39.7831 19.0761L62.1753 38.2234Z" fill="#D5E0D8"/>
</svg>
