<svg width="30" height="30" viewBox="0 0 30 30" fill="none" xmlns="http://www.w3.org/2000/svg">
<g id="mdi:unlocked-variant">
<path id="Vector" d="M22.5 1.25C19.05 1.25 16.25 4.05 16.25 7.5V10H5C4.33696 10 3.70107 10.2634 3.23223 10.7322C2.76339 11.2011 2.5 11.837 2.5 12.5V25C2.5 25.663 2.76339 26.2989 3.23223 26.7678C3.70107 27.2366 4.33696 27.5 5 27.5H20C21.3875 27.5 22.5 26.3875 22.5 25V12.5C22.5 11.837 22.2366 11.2011 21.7678 10.7322C21.2989 10.2634 20.663 10 20 10H18.75V7.5C18.75 5.425 20.425 3.75 22.5 3.75C24.575 3.75 26.25 5.425 26.25 7.5V10H28.75V7.5C28.75 4.05 25.95 1.25 22.5 1.25ZM12.5 16.25C13.163 16.25 13.7989 16.5134 14.2678 16.9822C14.7366 17.4511 15 18.087 15 18.75C15 20.1375 13.8875 21.25 12.5 21.25C11.837 21.25 11.2011 20.9866 10.7322 20.5178C10.2634 20.0489 10 19.413 10 18.75C10 18.087 10.2634 17.4511 10.7322 16.9822C11.2011 16.5134 11.837 16.25 12.5 16.25Z" fill="#F96A6A"/>
</g>
</svg>
